<?xml version="1.0" encoding="UTF-8"?>
<svg width="189px" height="30px" viewBox="0 0 189 30" version="1.1" xmlns="http://www.w3.org/2000/svg" xmlns:xlink="http://www.w3.org/1999/xlink">
    <!-- Generator: Sketch 49.3 (51167) - http://www.bohemiancoding.com/sketch -->
    <title>Slice 1</title>
    <desc>Created with Sketch.</desc>
    <defs></defs>
    <g id="Page-1" stroke="none" stroke-width="1" fill="none" fill-rule="evenodd">
        <g id="bittrex-logo-mark" transform="translate(0.000000, 3.000000)" fill="#0082D7" fill-rule="nonzero">
            <path d="M5.26374131,0.0002911 L5.26374131,4.0379961 L7.7988983,4.0379961 L7.7988983,2.5362934 L23.0091249,2.5362934 L23.0091249,17.7558859 L7.7988983,17.7558859 L7.7988983,9.5781196 L5.26374131,9.5781196 L5.26374131,20.2926039 L25.5442819,20.2926039 L25.5442819,0.0002911 L5.26374131,0.0002911 Z M0,5.7072625 L0,26.0002911 L20.2798252,26.0002911 L20.2798252,21.7986729 L17.7453836,21.7986729 L17.7453836,23.4635731 L2.53444165,23.4635731 L2.53444165,8.2439806 L17.7453836,8.2439806 L17.7453836,16.2585494 L20.2798252,16.2585494 L20.2798252,5.7072625 L0,5.7072625 Z" id="Logo-Mark"></path>
        </g>
        <path d="M38.1444165,26.681736 L38.1444165,15.8693434 L44.9316202,15.8693434 C48.4904278,15.8693434 50.8074387,18.0492261 50.8074387,21.4067968 C50.8074387,24.7194064 48.5317293,26.681736 44.6838115,26.681736 L38.1444165,26.681736 Z M43.8550293,2.7900469 C47.4138369,2.7900469 49.4830391,4.62184463 49.4830391,7.62987975 C49.4830391,11.0744715 47.4138369,13.2543543 44.228119,13.2543543 L38.1444165,13.2543543 L38.1444165,2.7900469 L43.8550293,2.7900469 Z M52.7114352,7.36881589 C52.7114352,2.74653622 49.4417377,0.00101527622 43.8550293,0.00101527622 L35,0.00101527622 L35,29.4722179 L44.6838115,29.4722179 C50.5596301,29.4722179 54.0358349,26.4641828 54.0358349,21.4067968 C54.0358349,17.8751836 51.8427282,15.2152335 48.1173381,14.3000598 C51.0979255,13.3413756 52.7114352,10.8989787 52.7114352,7.36881589 Z M61.0317485,29.4713479 L64.1761649,29.4713479 L64.1761649,0.000145011121 L61.0317485,0.000145011121 L61.0317485,29.4713479 Z M70.9234438,2.79062694 L78.82854,2.79062694 L78.82854,29.4713479 L81.9729566,29.4713479 L81.9729566,2.79062694 L89.7954498,2.79062694 L89.7954498,0.000145011121 L70.9234438,0.000145011121 L70.9234438,2.79062694 Z M94.3476946,2.79062694 L102.252791,2.79062694 L102.252791,29.4713479 L105.397207,29.4713479 L105.397207,2.79062694 L113.2197,2.79062694 L113.2197,0.000145011121 L94.3476946,0.000145011121 L94.3476946,2.79062694 Z M131.596226,17.6570504 C135.321617,16.7418767 137.679929,13.7773523 137.679929,9.02454057 C137.679929,3.35655536 134.037142,0.000435033363 127.870836,0.000435033363 L119.801911,0.000435033363 L119.801911,29.4716379 L122.946328,29.4716379 L122.946328,18.0500964 L128.988729,18.0500964 L135.072431,29.4716379 L138.796445,29.4716379 L132.423632,18.5287135 L131.596226,17.6570504 Z M148.812595,16.0003105 L160.565609,16.0003105 L160.565609,13.3418107 L148.812595,13.3418107 L148.812595,2.79048193 L161.806029,2.79048193 L161.806029,0 L145.668179,0 L145.668179,29.4726532 L161.93131,29.4726532 L161.93131,26.682171 L148.812595,26.682171 L148.812595,16.0003105 Z M180.432704,14.4308819 L188.750815,0.043365665 L184.942822,0.043365665 L178.693914,11.7274211 L178.446105,12.8615983 L178.198296,11.7274211 L171.949388,0.043365665 L168.184073,0.043365665 L176.502184,14.4308819 L167.934888,29.4725081 L171.784182,29.4725081 L178.198296,17.3518958 L178.446105,16.2177186 L178.693914,17.3518958 L185.150706,29.4725081 L189,29.4725081 L180.432704,14.4308819 Z M122.905026,15.433657 L122.905026,2.79091716 L128.450433,2.79091716 C132.258426,2.79091716 134.492834,5.10133174 134.492834,9.02454057 C134.492834,13.2972849 131.96794,15.433657 128.243926,15.433657 L122.905026,15.433657 Z" id="Work-Mark" fill="#FFFFFF" fill-rule="nonzero"></path>
    </g>
</svg>