<svg width="38" height="38" viewBox="0 0 38 38" xmlns="http://www.w3.org/2000/svg" class="CurrencyIcon-dPQhPg gSqhDT">
  <g fill="none" fill-rule="evenodd">
    <circle fill="#8DC451" cx="19" cy="19" r="19"></circle>
    <path d="M24.505 16.722a3.63 3.63 0 0 0 .241-2.518c-.741-2.767-2.832-3.986-5.576-3.25l.001-.001-.891-3.32a.228.228 0 0 0-.279-.163l-1.317.353a.227.227 0 0 0-.16.271l.891 3.33-1.756.47-.891-3.32a.228.228 0 0 0-.279-.162l-1.317.352a.227.227 0 0 0-.16.272l.891 3.329-3.734 1.001a.228.228 0 0 0-.16.28l.355 1.327c.036.118.16.195.28.163l.22-.06c.969-.259 1.968.323 2.23 1.301l1.9 7.083a1.828 1.828 0 0 1-1.13 2.194.228.228 0 0 0-.149.218l.026 1.425a.227.227 0 0 0 .287.218l3.671-.984.892 3.33a.227.227 0 0 0 .275.154l1.317-.353a.228.228 0 0 0 .16-.28l-.888-3.321 1.756-.47.892 3.328a.227.227 0 0 0 .275.155l1.317-.353a.228.228 0 0 0 .16-.28l-.888-3.321.877-.235c2.744-.735 3.945-2.837 3.204-5.604a3.633 3.633 0 0 0-2.543-2.559zm-8.136-2.171l2.634-.706c.97-.26 1.969.322 2.23 1.3a1.826 1.826 0 0 1-1.28 2.242l-2.635.705-.949-3.541zm5.885 7.913l-3.512.941-.95-3.542 3.513-.94c.97-.26 1.968.322 2.23 1.3a1.826 1.826 0 0 1-1.281 2.24z" fill="#FFF"></path>
  </g>
</svg>
